<svg width="32" height="32" viewBox="0 0 32 32" fill="none" xmlns="http://www.w3.org/2000/svg">
<path d="M15.4493 9.332H10.2693C9.72195 9.33184 9.18776 9.50014 8.73931 9.81405C8.29087 10.128 7.94989 10.5723 7.76268 11.0867L2.74935 24.876C2.57201 25.3627 2.69334 25.908 3.05868 26.2747L3.44934 26.6653L12.012 18.1027C12.0107 18.068 12.0013 18.0333 12.0013 17.9987C12.0013 17.6031 12.1186 17.2164 12.3384 16.8875C12.5582 16.5586 12.8705 16.3023 13.236 16.1509C13.6014 15.9995 14.0036 15.9599 14.3915 16.0371C14.7795 16.1143 15.1359 16.3048 15.4156 16.5845C15.6953 16.8642 15.8857 17.2205 15.9629 17.6085C16.0401 17.9965 16.0005 18.3986 15.8491 18.764C15.6977 19.1295 15.4414 19.4418 15.1125 19.6616C14.7836 19.8814 14.3969 19.9987 14.0013 19.9987C13.9667 19.9987 13.932 19.9893 13.8973 19.988L5.33468 28.5507L5.72535 28.9413C5.90461 29.1211 6.13159 29.2457 6.37945 29.3005C6.6273 29.3553 6.88567 29.338 7.12401 29.2507L20.9133 24.236C21.4277 24.0488 21.8721 23.7078 22.186 23.2594C22.4999 22.8109 22.6682 22.2767 22.668 21.7293V16.5493L25.3333 13.8853L18.1147 6.66667L15.4493 9.332ZM26.5867 12.0813L19.92 5.41467L22.7467 2.58667L29.4133 9.25334L26.5867 12.0813Z" fill="#701846"/>
</svg>
