<svg width="45" height="44" viewBox="0 0 45 44" fill="none" xmlns="http://www.w3.org/2000/svg">
<path d="M28.5005 16.2216C30.0606 16.1747 31.541 15.5221 32.628 14.402C33.715 13.282 34.3229 11.7825 34.3229 10.2218C34.3229 8.66099 33.715 7.16159 32.628 6.04152C31.541 4.92145 30.0606 4.26881 28.5005 4.22198H16.4991C14.939 4.26881 13.4585 4.92145 12.3716 6.04152C11.2846 7.16159 10.6767 8.66099 10.6767 10.2218C10.6767 11.7825 11.2846 13.282 12.3716 14.402C13.4585 15.5221 14.939 16.1747 16.4991 16.2216C14.9254 16.2488 13.4253 16.8931 12.3221 18.0157C11.2188 19.1382 10.6006 20.6492 10.6006 22.2231C10.6006 23.7971 11.2188 25.3081 12.3221 26.4306C13.4253 27.5532 14.9254 28.1975 16.4991 28.2247C14.9331 28.2631 13.4441 28.9122 12.3501 30.0333C11.256 31.1545 10.6436 32.6589 10.6436 34.2254C10.6436 35.7919 11.256 37.2963 12.3501 38.4175C13.4441 39.5387 14.9331 40.1877 16.4991 40.2261C18.0906 40.2251 19.6166 39.5924 20.7418 38.4668C21.867 37.3413 22.4993 35.8151 22.4998 34.2236V16.2216H28.5005Z" fill="#701846"/>
<path d="M28.5007 28.2229C31.8148 28.2229 34.5014 25.5363 34.5014 22.2222C34.5014 18.9081 31.8148 16.2215 28.5007 16.2215C25.1866 16.2215 22.5 18.9081 22.5 22.2222C22.5 25.5363 25.1866 28.2229 28.5007 28.2229Z" fill="#701846"/>
</svg>
