<svg width="32" height="32" viewBox="0 0 32 32" fill="none" xmlns="http://www.w3.org/2000/svg">
<path d="M10.404 7.64133C11.1894 7.64133 11.896 7.70933 12.544 7.84799C13.188 7.98533 13.7374 8.21199 14.2014 8.52533C14.6587 8.83866 15.016 9.25466 15.2734 9.77733C15.5227 10.2933 15.6467 10.9387 15.6467 11.7013C15.6467 12.528 15.46 13.2187 15.0854 13.7693C14.708 14.3213 14.152 14.7733 13.4107 15.1227C14.42 15.4147 15.168 15.9253 15.664 16.6507C16.1627 17.3827 16.4067 18.2587 16.4067 19.2853C16.4067 20.1187 16.248 20.8347 15.9294 21.436C15.6223 22.0284 15.1768 22.5379 14.6307 22.9213C14.065 23.3152 13.4332 23.6042 12.7654 23.7747C12.0651 23.9585 11.344 24.0508 10.62 24.0493H2.66669V7.64133H10.404ZM9.93602 14.2707C10.576 14.2707 11.1067 14.1187 11.5254 13.8107C11.9414 13.5067 12.1427 13.0053 12.1427 12.3187C12.1427 11.9373 12.0747 11.6227 11.9414 11.376C11.8115 11.1387 11.6192 10.9414 11.3854 10.8053C11.1406 10.6602 10.8705 10.5629 10.5894 10.5187C10.2829 10.4615 9.9717 10.4343 9.66002 10.4373H6.28002V14.2707H9.93602ZM10.1374 21.256C10.4934 21.256 10.832 21.2253 11.1507 21.1533C11.472 21.084 11.7574 20.972 12 20.8053C12.2427 20.6453 12.4427 20.428 12.5867 20.1507C12.732 19.876 12.8027 19.5173 12.8027 19.0867C12.8027 18.2413 12.564 17.64 12.092 17.276C11.6187 16.916 10.984 16.7373 10.2067 16.7373H6.28002V21.2573H10.1374V21.256ZM21.5574 21.2013C22.0467 21.6787 22.752 21.9187 23.6694 21.9187C24.3267 21.9187 24.8947 21.752 25.3734 21.4213C25.8454 21.0893 26.1334 20.7347 26.244 20.368H29.1174C28.656 21.7973 27.956 22.8187 26.9987 23.4333C26.0534 24.0507 24.9027 24.3573 23.5587 24.3573C22.6227 24.3573 21.78 24.2067 21.0254 23.908C20.301 23.6259 19.6464 23.1901 19.1067 22.6307C18.5759 22.0582 18.1655 21.3848 17.9 20.6507C17.6082 19.8388 17.4637 18.9813 17.4734 18.1187C17.4734 17.2307 17.6214 16.4 17.912 15.6333C18.1879 14.8922 18.6116 14.215 19.1574 13.6427C19.6974 13.0827 20.3374 12.6413 21.0827 12.3173C21.8665 11.9877 22.7098 11.8234 23.56 11.8347C24.5654 11.8347 25.444 12.0293 26.1987 12.4213C26.9305 12.7955 27.5651 13.3351 28.052 13.9973C28.536 14.6547 28.8814 15.408 29.096 16.252C29.3107 17.0947 29.3854 17.9747 29.324 18.896H20.7494C20.7507 19.8347 21.0667 20.724 21.5574 21.2013ZM25.3067 14.96C24.9187 14.5307 24.2627 14.2987 23.46 14.2987C22.9387 14.2987 22.508 14.3853 22.1614 14.564C21.8444 14.7241 21.5632 14.9468 21.3347 15.2187C21.134 15.4655 20.9853 15.7503 20.8974 16.056C20.8204 16.3109 20.7708 16.5733 20.7494 16.8387H26.0587C25.9814 16.0067 25.696 15.392 25.3067 14.96ZM20.0827 8.74266H26.7347V10.3627H20.0827V8.74266Z" fill="#701846"/>
</svg>
