<svg width="45" height="44" viewBox="0 0 45 44" fill="none" xmlns="http://www.w3.org/2000/svg">
<path d="M22.5004 16.4861C19.5721 16.4861 17.0977 18.9606 17.0977 21.8889C17.0977 24.8172 19.5721 27.2916 22.5004 27.2916C25.4287 27.2916 27.9032 24.8172 27.9032 21.8889C27.9032 18.9606 25.4287 16.4861 22.5004 16.4861Z" fill="#701846"/>
<path d="M36.9079 9.28242H32.2507L27.3756 4.40731C27.2086 4.23975 27.0102 4.10686 26.7917 4.0163C26.5731 3.92574 26.3389 3.8793 26.1023 3.87964H18.8986C18.6621 3.8793 18.4278 3.92574 18.2093 4.0163C17.9908 4.10686 17.7923 4.23975 17.6254 4.40731L12.7503 9.28242H8.09306C6.10664 9.28242 4.49121 10.8978 4.49121 12.8843V32.6945C4.49121 34.6809 6.10664 36.2963 8.09306 36.2963H36.9079C38.8943 36.2963 40.5097 34.6809 40.5097 32.6945V12.8843C40.5097 10.8978 38.8943 9.28242 36.9079 9.28242ZM22.5005 30.8935C17.62 30.8935 13.4958 26.7694 13.4958 21.8889C13.4958 17.0084 17.62 12.8843 22.5005 12.8843C27.381 12.8843 31.5051 17.0084 31.5051 21.8889C31.5051 26.7694 27.381 30.8935 22.5005 30.8935Z" fill="#701846"/>
</svg>
