<svg width="32" height="32" viewBox="0 0 32 32" fill="none" xmlns="http://www.w3.org/2000/svg">
<path d="M16 2.66666C8.64802 2.66666 2.66669 8.64799 2.66669 16C2.66669 23.352 8.64802 29.3333 16 29.3333C23.352 29.3333 29.3334 23.352 29.3334 16C29.3334 8.64799 23.352 2.66666 16 2.66666ZM8.58002 11.2893C8.93852 10.9206 9.42602 10.7053 9.94 10.6887C10.454 10.672 10.9544 10.8553 11.336 11.2C11.7117 10.8502 12.2083 10.6594 12.7215 10.6676C13.2348 10.6758 13.725 10.8823 14.0894 11.244C14.8854 12.0333 14.8947 13.272 14.1134 14.068L11.38 16.8453L8.60402 14.112C8.41503 13.9294 8.26429 13.711 8.16061 13.4696C8.05692 13.2281 8.00237 12.9685 8.00014 12.7057C7.99791 12.4429 8.04803 12.1823 8.14759 11.9392C8.24716 11.696 8.39416 11.4751 8.58002 11.2893ZM16 24C10.6667 24 9.33335 18.6667 9.33335 18.6667H22.6667C22.6667 18.6667 21.3334 24 16 24ZM23.4467 14.068L20.7134 16.8453L17.9374 14.112C17.7484 13.9294 17.5977 13.7111 17.494 13.4697C17.3903 13.2283 17.3357 12.9687 17.3334 12.706C17.331 12.4433 17.381 12.1827 17.4803 11.9395C17.5797 11.6963 17.7264 11.4753 17.912 11.2893C18.2706 10.9202 18.7584 10.7047 19.2727 10.688C19.787 10.6713 20.2877 10.8549 20.6694 11.2C21.0451 10.8502 21.5416 10.6594 22.0549 10.6676C22.5682 10.6758 23.0583 10.8823 23.4227 11.244C24.2187 12.032 24.2294 13.272 23.4467 14.068Z" fill="#701846"/>
</svg>
