<svg width="32" height="32" viewBox="0 0 32 32" fill="none" xmlns="http://www.w3.org/2000/svg">
<path d="M28 2.66669H8.00002C7.29278 2.66669 6.6145 2.94764 6.1144 3.44774C5.6143 3.94783 5.33335 4.62611 5.33335 5.33335V9.33335H2.66669V12H5.33335V14.6667H2.66669V17.3334H5.33335V20H2.66669V22.6667H5.33335V26.6667C5.33335 27.3739 5.6143 28.0522 6.1144 28.5523C6.6145 29.0524 7.29278 29.3334 8.00002 29.3334H28C28.3536 29.3334 28.6928 29.1929 28.9428 28.9428C29.1929 28.6928 29.3334 28.3536 29.3334 28V4.00002C29.3334 3.6464 29.1929 3.30726 28.9428 3.05721C28.6928 2.80716 28.3536 2.66669 28 2.66669ZM17.3334 6.66535C19.5307 6.66535 21.3334 8.46669 21.3334 10.6654C21.3295 11.7252 20.9069 12.7405 20.1576 13.49C19.4083 14.2395 18.3932 14.6625 17.3334 14.6667C15.1374 14.6667 13.3334 12.8627 13.3334 10.6654C13.3334 8.46669 15.1374 6.66535 17.3334 6.66535ZM25.3334 24H9.33335V23C9.33335 20.0414 12.94 17 17.3334 17C21.7267 17 25.3334 20.0414 25.3334 23V24Z" fill="#701846"/>
</svg>
