<svg width="33" height="33" viewBox="0 0 33 33" fill="none" xmlns="http://www.w3.org/2000/svg">
<path d="M30.9375 31.3125L32.4375 24.8125C32.625 24.125 32.25 23.375 31.5625 23.0625L24.5625 20.0625C23.9375 19.8125 23.25 20 22.8125 20.5L19.6875 24.3125C14.9375 22.0625 10.9375 18.125 8.625 13.25L12.4375 10.125C12.9375 9.6875 13.125 9 12.875 8.375L9.875 1.375C9.5625 0.687499 8.8125 0.374999 8.125 0.499999L1.625 2C0.9375 2.1875 0.5 2.75 0.5 3.5C0.499999 19.5 13.4375 32.5 29.5 32.5C30.1875 32.5 30.75 32 30.9375 31.3125Z" fill="#701846"/>
</svg>
